<mxfile host="app.diagrams.net" modified="2023-10-17T10:11:57.242Z" agent="Mozilla/5.0 (Windows NT 10.0; Win64; x64) AppleWebKit/537.36 (KHTML, like Gecko) Chrome/118.0.0.0 Safari/537.36 Edg/118.0.2088.46" etag="JN0HBCbKhneY41Lxp-Wo" version="21.7.2" type="github">
  <diagram name="Page-1" id="74e2e168-ea6b-b213-b513-2b3c1d86103e">
    <mxGraphModel dx="868" dy="453" grid="1" gridSize="10" guides="1" tooltips="1" connect="1" arrows="1" fold="1" page="1" pageScale="1" pageWidth="1100" pageHeight="850" background="none" math="0" shadow="0">
      <root>
        <mxCell id="0" />
        <mxCell id="1" parent="0" />
        <mxCell id="77e6c97f196da883-1" value="规划范围" style="swimlane;html=1;childLayout=stackLayout;startSize=20;rounded=0;shadow=0;labelBackgroundColor=none;strokeWidth=1;fontFamily=Verdana;fontSize=20;align=center;" parent="1" vertex="1">
          <mxGeometry x="70" y="40" width="450" height="150" as="geometry" />
        </mxCell>
        <mxCell id="77e6c97f196da883-2" value="" style="swimlane;html=1;startSize=20;fontSize=18;" parent="77e6c97f196da883-1" vertex="1">
          <mxGeometry y="20" width="160" height="130" as="geometry" />
        </mxCell>
        <mxCell id="77e6c97f196da883-8" value="项目章程" style="rounded=1;whiteSpace=wrap;html=1;shadow=0;labelBackgroundColor=none;strokeWidth=1;fontFamily=Verdana;fontSize=18;align=center;" parent="77e6c97f196da883-2" vertex="1">
          <mxGeometry x="30" y="60" width="100" height="30" as="geometry" />
        </mxCell>
        <mxCell id="77e6c97f196da883-3" value="Lane 2" style="swimlane;html=1;startSize=20;fontSize=18;" parent="77e6c97f196da883-1" vertex="1">
          <mxGeometry x="160" y="20" width="160" height="130" as="geometry" />
        </mxCell>
        <mxCell id="77e6c97f196da883-11" value="备选方案分析" style="rounded=1;whiteSpace=wrap;html=1;shadow=0;labelBackgroundColor=none;strokeWidth=1;fontFamily=Verdana;fontSize=18;align=center;" parent="77e6c97f196da883-3" vertex="1">
          <mxGeometry x="15" y="65" width="130" height="20" as="geometry" />
        </mxCell>
        <mxCell id="77e6c97f196da883-4" value="Lane 3" style="swimlane;html=1;startSize=20;fontSize=18;" parent="77e6c97f196da883-1" vertex="1">
          <mxGeometry x="320" y="20" width="130" height="130" as="geometry" />
        </mxCell>
        <mxCell id="5xZNeHndiTW3SxTX_l-Z-4" value="需求管理计划" style="rounded=1;whiteSpace=wrap;html=1;shadow=0;labelBackgroundColor=none;strokeWidth=1;fontFamily=Verdana;fontSize=18;align=center;" vertex="1" parent="77e6c97f196da883-4">
          <mxGeometry x="5.5" y="30" width="119" height="40" as="geometry" />
        </mxCell>
        <mxCell id="5xZNeHndiTW3SxTX_l-Z-5" value="范围管理计划" style="rounded=1;whiteSpace=wrap;html=1;shadow=0;labelBackgroundColor=none;strokeWidth=1;fontFamily=Verdana;fontSize=18;align=center;" vertex="1" parent="77e6c97f196da883-4">
          <mxGeometry x="5.5" y="80" width="119" height="40" as="geometry" />
        </mxCell>
        <mxCell id="5xZNeHndiTW3SxTX_l-Z-7" value="规划范围" style="swimlane;html=1;childLayout=stackLayout;startSize=20;rounded=0;shadow=0;labelBackgroundColor=none;strokeWidth=1;fontFamily=Verdana;fontSize=20;align=center;" vertex="1" parent="1">
          <mxGeometry x="70" y="220" width="450" height="150" as="geometry" />
        </mxCell>
        <mxCell id="5xZNeHndiTW3SxTX_l-Z-8" value="" style="swimlane;html=1;startSize=20;fontSize=18;" vertex="1" parent="5xZNeHndiTW3SxTX_l-Z-7">
          <mxGeometry y="20" width="160" height="130" as="geometry" />
        </mxCell>
        <mxCell id="5xZNeHndiTW3SxTX_l-Z-9" value="项目章程" style="rounded=1;whiteSpace=wrap;html=1;shadow=0;labelBackgroundColor=none;strokeWidth=1;fontFamily=Verdana;fontSize=18;align=center;" vertex="1" parent="5xZNeHndiTW3SxTX_l-Z-8">
          <mxGeometry x="30" y="60" width="100" height="30" as="geometry" />
        </mxCell>
        <mxCell id="5xZNeHndiTW3SxTX_l-Z-10" value="Lane 2" style="swimlane;html=1;startSize=20;fontSize=18;" vertex="1" parent="5xZNeHndiTW3SxTX_l-Z-7">
          <mxGeometry x="160" y="20" width="160" height="130" as="geometry" />
        </mxCell>
        <mxCell id="5xZNeHndiTW3SxTX_l-Z-11" value="备选方案分析" style="rounded=1;whiteSpace=wrap;html=1;shadow=0;labelBackgroundColor=none;strokeWidth=1;fontFamily=Verdana;fontSize=18;align=center;" vertex="1" parent="5xZNeHndiTW3SxTX_l-Z-10">
          <mxGeometry x="15" y="65" width="130" height="20" as="geometry" />
        </mxCell>
        <mxCell id="5xZNeHndiTW3SxTX_l-Z-12" value="Lane 3" style="swimlane;html=1;startSize=20;fontSize=18;" vertex="1" parent="5xZNeHndiTW3SxTX_l-Z-7">
          <mxGeometry x="320" y="20" width="130" height="130" as="geometry" />
        </mxCell>
        <mxCell id="5xZNeHndiTW3SxTX_l-Z-13" value="需求管理计划" style="rounded=1;whiteSpace=wrap;html=1;shadow=0;labelBackgroundColor=none;strokeWidth=1;fontFamily=Verdana;fontSize=18;align=center;" vertex="1" parent="5xZNeHndiTW3SxTX_l-Z-12">
          <mxGeometry x="5.5" y="30" width="119" height="40" as="geometry" />
        </mxCell>
        <mxCell id="5xZNeHndiTW3SxTX_l-Z-14" value="范围管理计划" style="rounded=1;whiteSpace=wrap;html=1;shadow=0;labelBackgroundColor=none;strokeWidth=1;fontFamily=Verdana;fontSize=18;align=center;" vertex="1" parent="5xZNeHndiTW3SxTX_l-Z-12">
          <mxGeometry x="5.5" y="80" width="119" height="40" as="geometry" />
        </mxCell>
      </root>
    </mxGraphModel>
  </diagram>
</mxfile>
